# This file uses centimeters as units for non-parametric coordinates.

mtllib stacked_cubes_surround_set.mtl
g default
v -4.000000 0.000000 0.000000
v -3.000000 0.000000 0.000000
v -4.000000 5.000000 0.000000
v -3.000000 5.000000 0.000000
v -4.000000 5.000000 -4.000000
v -3.000000 2.305620 -4.000000
v -4.000000 0.000000 -4.000000
v -3.000000 0.000000 -4.000000
v -4.000000 6.000000 0.000000
v -3.000000 6.000000 0.000000
v -3.000000 6.000000 -4.000000
v -4.000000 6.000000 -4.000000
v 3.000000 5.000000 0.000000
v 3.000000 2.305620 -4.000000
v 3.000000 6.000000 -4.000000
v 3.000000 6.000000 0.000000
v 4.000000 5.000000 0.000000
v 4.000000 5.000000 -4.000000
v 4.000000 6.000000 -4.000000
v 4.000000 6.000000 0.000000
v 3.000000 0.000000 0.000000
v 3.000000 0.000000 -4.000000
v 4.000000 0.000000 -4.000000
v 4.000000 0.000000 0.000000
vt 0.375000 0.000000
vt 0.625000 0.000000
vt 0.375000 0.250000
vt 0.625000 0.250000
vt 0.375000 0.500000
vt 0.625000 0.500000
vt 0.375000 0.750000
vt 0.625000 0.750000
vt 0.375000 1.000000
vt 0.625000 1.000000
vt 0.875000 0.000000
vt 0.875000 0.250000
vt 0.125000 0.000000
vt 0.125000 0.250000
vt 0.375000 0.250000
vt 0.625000 0.250000
vt 0.625000 0.500000
vt 0.375000 0.500000
vt 0.625000 0.250000
vt 0.625000 0.500000
vt 0.625000 0.500000
vt 0.625000 0.250000
vt 0.625000 0.250000
vt 0.625000 0.500000
vt 0.625000 0.500000
vt 0.625000 0.250000
vt 0.625000 0.250000
vt 0.625000 0.500000
vt 0.625000 0.500000
vt 0.625000 0.250000
vn 0.000000 0.000000 1.000000
vn 0.000000 0.000000 1.000000
vn 0.000000 0.000000 1.000000
vn 0.000000 0.000000 1.000000
vn 0.000000 1.000000 0.000000
vn 0.000000 1.000000 0.000000
vn 0.000000 1.000000 0.000000
vn 0.000000 1.000000 0.000000
vn 0.000000 0.000000 -1.000000
vn 0.000000 0.000000 -1.000000
vn 0.000000 0.000000 -1.000000
vn 0.000000 0.000000 -1.000000
vn 0.000000 -1.000000 0.000000
vn 0.000000 -1.000000 0.000000
vn 0.000000 -1.000000 0.000000
vn 0.000000 -1.000000 0.000000
vn 1.000000 0.000000 0.000000
vn 1.000000 0.000000 0.000000
vn 1.000000 0.000000 0.000000
vn 1.000000 0.000000 0.000000
vn -1.000000 0.000000 0.000000
vn -1.000000 0.000000 0.000000
vn -1.000000 0.000000 0.000000
vn -1.000000 0.000000 0.000000
vn 0.000000 0.000000 1.000000
vn 0.000000 0.000000 1.000000
vn 1.000000 0.000000 0.000000
vn 1.000000 0.000000 0.000000
vn 1.000000 0.000000 0.000000
vn 1.000000 0.000000 0.000000
vn 0.000000 0.000000 -1.000000
vn 0.000000 0.000000 -1.000000
vn -1.000000 0.000000 0.000000
vn -1.000000 0.000000 0.000000
vn 0.000000 -0.829389 0.558672
vn 0.000000 -0.829389 0.558672
vn 0.000000 -0.829389 0.558672
vn 0.000000 -0.829389 0.558672
vn 0.000000 0.000000 -1.000000
vn 0.000000 0.000000 -1.000000
vn 0.000000 1.000000 0.000000
vn 0.000000 1.000000 0.000000
vn 0.000000 0.000000 1.000000
vn 0.000000 0.000000 1.000000
vn 0.000000 -1.000000 0.000000
vn 0.000000 -1.000000 0.000000
vn 0.000000 -1.000000 0.000000
vn 0.000000 -1.000000 0.000000
vn 0.000000 0.000000 -1.000000
vn 0.000000 0.000000 -1.000000
vn 0.000000 1.000000 0.000000
vn 0.000000 1.000000 0.000000
vn 0.000000 0.000000 1.000000
vn 0.000000 0.000000 1.000000
vn -1.000000 0.000000 0.000000
vn -1.000000 0.000000 0.000000
vn -1.000000 0.000000 0.000000
vn -1.000000 0.000000 0.000000
vn 0.000000 0.000000 -1.000000
vn 0.000000 0.000000 -1.000000
vn 1.000000 0.000000 0.000000
vn 1.000000 0.000000 0.000000
vn 0.000000 0.000000 1.000000
vn 0.000000 0.000000 1.000000
s 1
g pCube2
usemtl initialShadingGroup
f 1/1/1 2/2/2 4/4/3 3/3/4
s 2
f 9/15/5 10/16/6 11/17/7 12/18/8
s 3
f 5/5/9 6/6/10 8/8/11 7/7/12
s off
f 7/7/13 8/8/14 2/10/15 1/9/16
f 2/2/17 8/11/18 6/12/19 4/4/20
s 4
f 7/13/21 1/1/22 3/3/23 5/14/24
s 1
f 3/3/4 4/4/3 10/16/25 9/15/26
s 5
f 17/23/27 18/24/28 19/25/29 20/26/30
s 3
f 6/6/10 5/5/9 12/18/31 11/17/32
s 4
f 5/5/24 3/3/23 9/15/33 12/18/34
s off
f 4/4/35 6/6/36 14/20/37 13/19/38
s 3
f 6/6/10 11/17/32 15/21/39 14/20/40
s 2
f 11/17/7 10/16/6 16/22/41 15/21/42
s 1
f 10/16/25 4/4/3 13/19/43 16/22/44
s off
f 21/27/45 22/28/46 23/29/47 24/30/48
s 3
f 14/20/40 15/21/39 19/25/49 18/24/50
s 2
f 15/21/42 16/22/41 20/26/51 19/25/52
s 1
f 16/22/44 13/19/43 17/23/53 20/26/54
s off
f 13/19/55 14/20/56 22/28/57 21/27/58
s 3
f 14/20/40 18/24/50 23/29/59 22/28/60
s 5
f 18/24/28 17/23/27 24/30/61 23/29/62
s 1
f 17/23/53 13/19/43 21/27/63 24/30/64
