# Blender 3.3.1
# www.blender.org
o Cube
v -0.068633 1.072775 -0.196974
v -0.464518 1.318042 0.335115
v -0.444532 0.890021 0.077436
v -0.773622 1.072775 -0.251655
v 0.267294 2.111571 0.043974
v 0.287280 1.683550 -0.213705
v -0.108605 1.928817 0.318385
v -0.061796 2.294325 -0.285116
v -0.437695 2.111571 -0.010706
v 0.616371 1.500796 0.115385
v 0.636357 1.072775 -0.142294
v 0.240472 1.318042 0.389796
v 0.260458 0.890021 0.132116
v -0.088619 1.500796 0.060705
v -0.417709 1.683550 -0.268385
v -0.813594 1.928817 0.263704
v -0.793608 1.500796 0.006025
v -0.766786 2.294325 -0.339796
v -1.142685 2.111571 -0.065386
v -1.122698 1.683550 -0.323066
v 0.992270 1.683550 -0.159025
v 0.596385 1.928816 0.373065
v -0.081782 2.722346 -0.027437
v -0.457681 2.539592 0.246973
v -0.410872 2.905100 -0.356527
v -0.786772 2.722346 -0.082117
v 0.643193 2.294325 -0.230436
v 0.247308 2.539592 0.301654
v 0.294117 2.905099 -0.301847
v -1.162671 2.539592 0.192293
v -1.115862 2.905100 -0.411207
v -1.491761 2.722346 -0.136797
v -1.471775 2.294325 -0.394477
v 1.328197 2.722345 0.081924
v 1.348183 2.294324 -0.175755
v 0.952298 2.539591 0.356334
v 0.972284 2.111571 0.098655
v 0.999106 2.905099 -0.247166
v 0.623207 2.722345 0.027244
vn -0.0400 0.8560 0.5154
vn -0.7518 -0.3655 0.5488
vn 0.6582 -0.3655 0.6582
vt 0.375000 0.500000
vt 0.375000 1.000000
vt 0.625000 0.750000
vt 0.375000 0.750000
vt 0.375000 1.000000
vt 0.625000 0.500000
vt 0.875000 0.750000
vt 0.625000 1.000000
vt 0.375000 0.750000
vt 0.375000 0.500000
vt 0.875000 0.500000
vt 0.375000 1.000000
vt 0.625000 0.750000
vt 0.875000 0.500000
vt 0.375000 0.500000
vt 0.375000 1.000000
vt 0.875000 0.750000
vt 0.625000 1.000000
vt 0.625000 0.500000
vt 0.375000 0.750000
vt 0.625000 0.500000
vt 0.375000 0.750000
vt 0.375000 0.500000
vt 0.625000 0.750000
vt 0.375000 0.750000
vt 0.625000 0.500000
vt 0.375000 0.750000
vt 0.875000 0.750000
vt 0.625000 1.000000
vt 0.875000 0.500000
vt 0.375000 1.000000
vt 0.375000 0.500000
vt 0.625000 0.750000
vt 0.875000 0.750000
vt 0.625000 1.000000
vt 0.375000 0.750000
vt 0.875000 0.500000
vt 0.375000 1.000000
vt 0.375000 0.500000
vt 0.875000 0.750000
vt 0.625000 1.000000
vt 0.375000 0.750000
vt 0.375000 1.000000
vt 0.375000 0.500000
vt 0.625000 0.750000
vt 0.625000 0.500000
vt 0.875000 0.750000
vt 0.625000 1.000000
vt 0.625000 0.750000
vt 0.875000 0.500000
vt 0.875000 0.750000
vt 0.625000 1.000000
vt 0.625000 0.500000
vt 0.875000 0.500000
vt 0.375000 0.500000
vt 0.375000 1.000000
vt 0.625000 0.750000
vt 0.875000 0.500000
vt 0.625000 0.750000
vt 0.875000 0.500000
vt 0.875000 0.750000
vt 0.625000 1.000000
vt 0.375000 1.000000
vt 0.625000 0.500000
vt 0.375000 0.500000
vt 0.625000 0.750000
vt 0.625000 0.500000
vt 0.375000 0.750000
vt 0.875000 0.500000
vt 0.625000 0.500000
vt 0.875000 0.750000
vt 0.625000 1.000000
s 0
f 14/26/1 15/30/1 17/34/1 2/3/1
f 3/4/2 2/3/2 17/35/2 4/5/2
f 1/1/3 14/26/3 2/3/3 3/4/3
f 5/6/1 8/14/1 9/17/1 7/13/1
f 14/27/2 7/13/2 9/18/2 15/31/2
f 6/10/3 5/6/3 7/13/3 14/27/3
f 10/21/1 6/11/1 14/28/1 12/24/1
f 13/25/2 12/24/2 14/29/2 1/2/2
f 11/23/3 10/21/3 12/24/3 13/25/3
f 9/19/1 18/37/1 19/40/1 16/33/1
f 17/36/2 16/33/2 19/41/2 20/43/2
f 15/32/3 9/19/3 16/33/3 17/36/3
f 37/67/1 27/54/1 5/7/1 22/45/1
f 10/22/2 22/45/2 5/8/2 6/12/2
f 21/44/3 37/67/3 22/45/3 10/22/3
f 23/46/1 25/50/1 26/51/1 24/49/1
f 9/20/2 24/49/2 26/52/2 18/38/2
f 8/15/3 23/46/3 24/49/3 9/20/3
f 39/70/1 29/58/1 23/47/1 28/57/1
f 5/9/2 28/57/2 23/48/2 8/16/2
f 27/55/3 39/70/3 28/57/3 5/9/3
f 26/53/1 31/60/1 32/61/1 30/59/1
f 19/42/2 30/59/2 32/62/2 33/63/2
f 18/39/3 26/53/3 30/59/3 19/42/3
f 34/64/1 38/69/1 39/71/1 36/66/1
f 37/68/2 36/66/2 39/72/2 27/56/2
f 35/65/3 34/64/3 36/66/3 37/68/3
