# 
# Wavefront OBJ file
# Created with Autodesk FBX SDK
# 
g fbxNode
v 0.000000 1.000000 -1.414213
v 0.707107 1.000000 -0.707107
v 0.707107 2.000000 -0.707107
v 0.000000 2.000000 -1.414213
v 0.000000 2.000000 -1.414213
v 0.707107 2.000000 -0.707107
v 1.414214 2.000000 -1.414213
v 0.707107 2.000000 -2.121320
v 0.707107 1.000000 -0.707107
v 1.414214 1.000000 -1.414213
v 1.414214 2.000000 -1.414213
v 0.707107 2.000000 -0.707107
v -1.414214 1.000000 -1.414213
v -0.707107 1.000000 -0.707107
v -0.707107 2.000000 -0.707107
v -1.414214 2.000000 -1.414213
v -1.414214 2.000000 -1.414213
v -0.707107 2.000000 -0.707107
v 0.000000 2.000000 -1.414213
v -0.707107 2.000000 -2.121320
v -0.707107 1.000000 -0.707107
v 0.000000 1.000000 -1.414213
v 0.000000 2.000000 -1.414213
v -0.707107 2.000000 -0.707107
v -0.707107 2.000000 -2.121320
v 0.000000 2.000000 -1.414213
v 0.000000 3.000000 -1.414213
v -0.707107 3.000000 -2.121320
v -0.707107 3.000000 -2.121320
v 0.000000 3.000000 -1.414213
v 0.707107 3.000000 -2.121320
v 0.000000 3.000000 -2.828427
v 0.000000 2.000000 -1.414213
v 0.707107 2.000000 -2.121320
v 0.707107 3.000000 -2.121320
v 0.000000 3.000000 -1.414213
v -0.707107 0.000000 -0.707107
v 0.000000 0.000000 0.000000
v 0.000000 1.000000 0.000000
v -0.707107 1.000000 -0.707107
v -0.707107 1.000000 -0.707107
v 0.000000 1.000000 0.000000
v 0.707107 1.000000 -0.707107
v 0.000000 1.000000 -1.414213
v 0.000000 0.000000 0.000000
v 0.707107 0.000000 -0.707107
v 0.707107 1.000000 -0.707107
v 0.000000 1.000000 0.000000
v -2.121320 0.000000 -0.707107
v -1.414214 0.000000 0.000000
v -1.414214 1.000000 0.000000
v -2.121320 1.000000 -0.707107
v -2.121320 1.000000 -0.707107
v -1.414214 1.000000 0.000000
v -0.707107 1.000000 -0.707107
v -1.414214 1.000000 -1.414213
v -1.414214 0.000000 0.000000
v -0.707107 0.000000 -0.707107
v -0.707107 1.000000 -0.707107
v -1.414214 1.000000 0.000000
v -1.414214 0.000000 -1.414213
v -2.121320 0.000000 -0.707107
v -2.121320 1.000000 -0.707107
v -1.414214 1.000000 -1.414213
v 0.707107 0.000000 -0.707107
v 1.414214 0.000000 0.000000
v 1.414214 1.000000 0.000000
v 0.707107 1.000000 -0.707107
v 0.707107 1.000000 -0.707107
v 1.414214 1.000000 0.000000
v 2.121320 1.000000 -0.707107
v 1.414214 1.000000 -1.414213
v 1.414214 0.000000 0.000000
v 2.121320 0.000000 -0.707107
v 2.121320 1.000000 -0.707107
v 1.414214 1.000000 0.000000
vt 0.597000 0.542177
vt 0.500000 0.620044
vt 0.500000 0.426491
vt 0.597000 0.542177
vt 0.500000 0.426491
vt 0.591784 0.340065
vt 0.585149 0.688399
vt 0.597000 0.542177
vt 0.681377 0.620044
vt 0.597000 0.542177
vt 0.585149 0.688399
vt 0.500000 0.620044
vt 0.681377 0.620044
vt 0.597000 0.542177
vt 0.591784 0.340065
vt 0.681377 0.620044
vt 0.591784 0.340065
vt 0.672228 0.426491
vt 0.403000 0.542177
vt 0.318623 0.620044
vt 0.327772 0.426491
vt 0.403000 0.542177
vt 0.327772 0.426491
vt 0.408216 0.340065
vt 0.414851 0.688399
vt 0.403000 0.542177
vt 0.500000 0.620044
vt 0.403000 0.542177
vt 0.414851 0.688399
vt 0.318623 0.620044
vt 0.500000 0.620044
vt 0.403000 0.542177
vt 0.408216 0.340065
vt 0.500000 0.620044
vt 0.408216 0.340065
vt 0.500000 0.426491
vt 0.500000 0.835316
vt 0.414851 0.688399
vt 0.500000 0.620044
vt 0.414851 0.688399
vt 0.500000 0.835316
vt 0.410381 0.893418
vt 0.589619 0.893418
vt 0.500000 0.944499
vt 0.410381 0.893418
vt 0.410381 0.893418
vt 0.500000 0.835316
vt 0.589619 0.893418
vt 0.500000 0.835316
vt 0.500000 0.620044
vt 0.589619 0.893418
vt 0.500000 0.620044
vt 0.585149 0.688399
vt 0.589619 0.893418
vt 0.500000 0.241453
vt 0.408216 0.340065
vt 0.412899 0.158577
vt 0.500000 0.241453
vt 0.412899 0.158577
vt 0.500000 0.053236
vt 0.500000 0.426491
vt 0.500000 0.241453
vt 0.591784 0.340065
vt 0.500000 0.241453
vt 0.500000 0.426491
vt 0.408216 0.340065
vt 0.591784 0.340065
vt 0.500000 0.241453
vt 0.500000 0.053236
vt 0.591784 0.340065
vt 0.500000 0.053236
vt 0.587101 0.158577
vt 0.303491 0.241453
vt 0.238696 0.158577
vt 0.314186 0.053236
vt 0.238696 0.158577
vt 0.303491 0.241453
vt 0.224647 0.340065
vt 0.327772 0.426491
vt 0.303491 0.241453
vt 0.408216 0.340065
vt 0.303491 0.241453
vt 0.327772 0.426491
vt 0.224647 0.340065
vt 0.408216 0.340065
vt 0.303491 0.241453
vt 0.314186 0.053236
vt 0.408216 0.340065
vt 0.314186 0.053236
vt 0.412899 0.158577
vt 0.238696 0.158577
vt 0.224647 0.340065
vt 0.336043 0.251528
vt 0.336043 0.251528
vt 0.224647 0.340065
vt 0.327772 0.426491
vt 0.696509 0.241453
vt 0.591784 0.340065
vt 0.587101 0.158577
vt 0.696509 0.241453
vt 0.587101 0.158577
vt 0.685814 0.053236
vt 0.672228 0.426491
vt 0.696509 0.241453
vt 0.775353 0.340065
vt 0.696509 0.241453
vt 0.672228 0.426491
vt 0.591784 0.340065
vt 0.696509 0.241453
vt 0.685814 0.053236
vt 0.775353 0.340065
vt 0.685814 0.053236
vt 0.761304 0.158577
vt 0.775353 0.340065
vn -0.707107 0.000000 0.707107
vn -0.707107 0.000000 0.707107
vn -0.707107 0.000000 0.707107
vn -0.707107 0.000000 0.707107
vn 0.000000 1.000000 0.000000
vn 0.000000 1.000000 0.000000
vn 0.000000 1.000000 0.000000
vn 0.000000 1.000000 0.000000
vn 0.707107 0.000000 0.707107
vn 0.707107 0.000000 0.707107
vn 0.707107 0.000000 0.707107
vn 0.707107 0.000000 0.707107
vn -0.707107 0.000000 0.707107
vn -0.707107 0.000000 0.707107
vn -0.707107 0.000000 0.707107
vn -0.707107 0.000000 0.707107
vn 0.000000 1.000000 0.000000
vn 0.000000 1.000000 0.000000
vn 0.000000 1.000000 0.000000
vn 0.000000 1.000000 0.000000
vn 0.707107 0.000000 0.707107
vn 0.707107 0.000000 0.707107
vn 0.707107 0.000000 0.707107
vn 0.707107 0.000000 0.707107
vn -0.707107 0.000000 0.707107
vn -0.707107 0.000000 0.707107
vn -0.707107 0.000000 0.707107
vn -0.707107 0.000000 0.707107
vn 0.000000 1.000000 0.000000
vn 0.000000 1.000000 0.000000
vn 0.000000 1.000000 0.000000
vn 0.000000 1.000000 0.000000
vn 0.707107 0.000000 0.707107
vn 0.707107 0.000000 0.707107
vn 0.707107 0.000000 0.707107
vn 0.707107 0.000000 0.707107
vn -0.707107 0.000000 0.707107
vn -0.707107 0.000000 0.707107
vn -0.707107 0.000000 0.707107
vn -0.707107 0.000000 0.707107
vn 0.000000 1.000000 0.000000
vn 0.000000 1.000000 0.000000
vn 0.000000 1.000000 0.000000
vn 0.000000 1.000000 0.000000
vn 0.707107 0.000000 0.707107
vn 0.707107 0.000000 0.707107
vn 0.707107 0.000000 0.707107
vn 0.707107 0.000000 0.707107
vn -0.707107 0.000000 0.707107
vn -0.707107 0.000000 0.707107
vn -0.707107 0.000000 0.707107
vn -0.707107 0.000000 0.707107
vn 0.000000 1.000000 0.000000
vn 0.000000 1.000000 0.000000
vn 0.000000 1.000000 0.000000
vn 0.000000 1.000000 0.000000
vn 0.707107 0.000000 0.707107
vn 0.707107 0.000000 0.707107
vn 0.707107 0.000000 0.707107
vn 0.707107 0.000000 0.707107
vn -0.707107 0.000000 -0.707107
vn -0.707107 0.000000 -0.707107
vn -0.707107 0.000000 -0.707107
vn -0.707107 0.000000 -0.707107
vn -0.707107 0.000000 0.707107
vn -0.707107 0.000000 0.707107
vn -0.707107 0.000000 0.707107
vn -0.707107 0.000000 0.707107
vn 0.000000 1.000000 0.000000
vn 0.000000 1.000000 0.000000
vn 0.000000 1.000000 0.000000
vn 0.000000 1.000000 0.000000
vn 0.707107 0.000000 0.707107
vn 0.707107 0.000000 0.707107
vn 0.707107 0.000000 0.707107
vn 0.707107 0.000000 0.707107
f 3/1/3 4/1/4 1/1/1
f 3/1/3 1/1/1 2/1/2
f 8/1/8 6/1/6 7/1/7
f 6/1/6 8/1/8 5/1/5
f 11/1/11 12/1/12 9/1/9
f 11/1/11 9/1/9 10/1/10
f 15/1/15 16/1/16 13/1/13
f 15/1/15 13/1/13 14/1/14
f 20/1/20 18/1/18 19/1/19
f 18/1/18 20/1/20 17/1/17
f 23/1/23 24/1/24 21/1/21
f 23/1/23 21/1/21 22/1/22
f 27/1/27 25/1/25 26/1/26
f 25/1/25 27/1/27 28/1/28
f 31/1/31 32/1/32 29/1/29
f 29/1/29 30/1/30 31/1/31
f 36/1/36 33/1/33 35/1/35
f 33/1/33 34/1/34 35/1/35
f 39/1/39 40/1/40 37/1/37
f 39/1/39 37/1/37 38/1/38
f 44/1/44 42/1/42 43/1/43
f 42/1/42 44/1/44 41/1/41
f 47/1/47 48/1/48 45/1/45
f 47/1/47 45/1/45 46/1/46
f 51/1/51 49/1/49 50/1/50
f 49/1/49 51/1/51 52/1/52
f 56/1/56 54/1/54 55/1/55
f 54/1/54 56/1/56 53/1/53
f 59/1/59 60/1/60 57/1/57
f 59/1/59 57/1/57 58/1/58
f 62/1/62 63/1/63 61/1/61
f 61/1/61 63/1/63 64/1/64
f 67/1/67 68/1/68 65/1/65
f 67/1/67 65/1/65 66/1/66
f 72/1/72 70/1/70 71/1/71
f 70/1/70 72/1/72 69/1/69
f 76/1/76 73/1/73 75/1/75
f 73/1/73 74/1/74 75/1/75
